<svg width="203" height="27" viewBox="0 0 203 27" fill="none" xmlns="http://www.w3.org/2000/svg">
<g filter="url(#filter0_bd_104:9)">
<path d="M13.6002 11.768H8.88416L8.12816 14H4.90616L9.47816 1.364H13.0422L17.6142 14H14.3562L13.6002 11.768ZM12.8082 9.392L11.2422 4.766L9.69416 9.392H12.8082ZM129.714 1.364V14H126.636V6.422L123.81 14H121.326L118.482 6.404V14H115.404V1.364H119.04L122.586 10.112L126.096 1.364H129.714Z" fill="#C51618"/>
<path d="M24.6036 11.39V14H23.0376C21.9216 14 21.0516 13.73 20.4276 13.19C19.8036 12.638 19.4916 11.744 19.4916 10.508V6.512H18.2676V3.956H19.4916V1.508H22.5696V3.956H24.5856V6.512H22.5696V10.544C22.5696 10.844 22.6416 11.06 22.7856 11.192C22.9296 11.324 23.1696 11.39 23.5056 11.39H24.6036ZM31.9161 11.39V14H30.3501C29.2341 14 28.3641 13.73 27.7401 13.19C27.1161 12.638 26.8041 11.744 26.8041 10.508V6.512H25.5801V3.956H26.8041V1.508H29.8821V3.956H31.8981V6.512H29.8821V10.544C29.8821 10.844 29.9541 11.06 30.0981 11.192C30.2421 11.324 30.4821 11.39 30.8181 11.39H31.9161ZM43.0986 8.816C43.0986 9.104 43.0806 9.404 43.0446 9.716H36.0786C36.1266 10.34 36.3246 10.82 36.6726 11.156C37.0326 11.48 37.4706 11.642 37.9866 11.642C38.7546 11.642 39.2886 11.318 39.5886 10.67H42.8646C42.6966 11.33 42.3906 11.924 41.9466 12.452C41.5146 12.98 40.9686 13.394 40.3086 13.694C39.6486 13.994 38.9106 14.144 38.0946 14.144C37.1106 14.144 36.2346 13.934 35.4666 13.514C34.6986 13.094 34.0986 12.494 33.6666 11.714C33.2346 10.934 33.0186 10.022 33.0186 8.978C33.0186 7.934 33.2286 7.022 33.6486 6.242C34.0806 5.462 34.6806 4.862 35.4486 4.442C36.2166 4.022 37.0986 3.812 38.0946 3.812C39.0666 3.812 39.9306 4.016 40.6866 4.424C41.4426 4.832 42.0306 5.414 42.4506 6.17C42.8826 6.926 43.0986 7.808 43.0986 8.816ZM39.9486 8.006C39.9486 7.478 39.7686 7.058 39.4086 6.746C39.0486 6.434 38.5986 6.278 38.0586 6.278C37.5426 6.278 37.1046 6.428 36.7446 6.728C36.3966 7.028 36.1806 7.454 36.0966 8.006H39.9486ZM50.8424 3.848C52.0184 3.848 52.9544 4.232 53.6504 5C54.3584 5.756 54.7124 6.8 54.7124 8.132V14H51.6524V8.546C51.6524 7.874 51.4784 7.352 51.1304 6.98C50.7824 6.608 50.3144 6.422 49.7264 6.422C49.1384 6.422 48.6704 6.608 48.3224 6.98C47.9744 7.352 47.8004 7.874 47.8004 8.546V14H44.7224V3.956H47.8004V5.288C48.1124 4.844 48.5324 4.496 49.0604 4.244C49.5884 3.98 50.1824 3.848 50.8424 3.848ZM56.2394 8.96C56.2394 7.928 56.4314 7.022 56.8154 6.242C57.2114 5.462 57.7454 4.862 58.4174 4.442C59.0894 4.022 59.8394 3.812 60.6674 3.812C61.3274 3.812 61.9274 3.95 62.4674 4.226C63.0194 4.502 63.4514 4.874 63.7634 5.342V0.68H66.8414V14H63.7634V12.56C63.4754 13.04 63.0614 13.424 62.5214 13.712C61.9934 14 61.3754 14.144 60.6674 14.144C59.8394 14.144 59.0894 13.934 58.4174 13.514C57.7454 13.082 57.2114 12.476 56.8154 11.696C56.4314 10.904 56.2394 9.992 56.2394 8.96ZM63.7634 8.978C63.7634 8.21 63.5474 7.604 63.1154 7.16C62.6954 6.716 62.1794 6.494 61.5674 6.494C60.9554 6.494 60.4334 6.716 60.0014 7.16C59.5814 7.592 59.3714 8.192 59.3714 8.96C59.3714 9.728 59.5814 10.34 60.0014 10.796C60.4334 11.24 60.9554 11.462 61.5674 11.462C62.1794 11.462 62.6954 11.24 63.1154 10.796C63.5474 10.352 63.7634 9.746 63.7634 8.978ZM68.4561 8.96C68.4561 7.928 68.6481 7.022 69.0321 6.242C69.4281 5.462 69.9621 4.862 70.6341 4.442C71.3061 4.022 72.0561 3.812 72.8841 3.812C73.5921 3.812 74.2101 3.956 74.7381 4.244C75.2781 4.532 75.6921 4.91 75.9801 5.378V3.956H79.0581V14H75.9801V12.578C75.6801 13.046 75.2601 13.424 74.7201 13.712C74.1921 14 73.5741 14.144 72.8661 14.144C72.0501 14.144 71.3061 13.934 70.6341 13.514C69.9621 13.082 69.4281 12.476 69.0321 11.696C68.6481 10.904 68.4561 9.992 68.4561 8.96ZM75.9801 8.978C75.9801 8.21 75.7641 7.604 75.3321 7.16C74.9121 6.716 74.3961 6.494 73.7841 6.494C73.1721 6.494 72.6501 6.716 72.2181 7.16C71.7981 7.592 71.5881 8.192 71.5881 8.96C71.5881 9.728 71.7981 10.34 72.2181 10.796C72.6501 11.24 73.1721 11.462 73.7841 11.462C74.3961 11.462 74.9121 11.24 75.3321 10.796C75.7641 10.352 75.9801 9.746 75.9801 8.978ZM87.4049 3.848C88.5809 3.848 89.5169 4.232 90.2129 5C90.9209 5.756 91.2749 6.8 91.2749 8.132V14H88.2149V8.546C88.2149 7.874 88.0409 7.352 87.6929 6.98C87.3449 6.608 86.8769 6.422 86.2889 6.422C85.7009 6.422 85.2329 6.608 84.8849 6.98C84.5369 7.352 84.3629 7.874 84.3629 8.546V14H81.2849V3.956H84.3629V5.288C84.6749 4.844 85.0949 4.496 85.6229 4.244C86.1509 3.98 86.7449 3.848 87.4049 3.848ZM92.8019 8.978C92.8019 7.934 93.0119 7.022 93.4319 6.242C93.8639 5.462 94.4579 4.862 95.2139 4.442C95.9819 4.022 96.8579 3.812 97.8419 3.812C99.1019 3.812 100.152 4.142 100.992 4.802C101.844 5.462 102.402 6.392 102.666 7.592H99.3899C99.1139 6.824 98.5799 6.44 97.7879 6.44C97.2239 6.44 96.7739 6.662 96.4379 7.106C96.1019 7.538 95.9339 8.162 95.9339 8.978C95.9339 9.794 96.1019 10.424 96.4379 10.868C96.7739 11.3 97.2239 11.516 97.7879 11.516C98.5799 11.516 99.1139 11.132 99.3899 10.364H102.666C102.402 11.54 101.844 12.464 100.992 13.136C100.14 13.808 99.0899 14.144 97.8419 14.144C96.8579 14.144 95.9819 13.934 95.2139 13.514C94.4579 13.094 93.8639 12.494 93.4319 11.714C93.0119 10.934 92.8019 10.022 92.8019 8.978ZM113.78 8.816C113.78 9.104 113.762 9.404 113.726 9.716H106.76C106.808 10.34 107.006 10.82 107.354 11.156C107.714 11.48 108.152 11.642 108.668 11.642C109.436 11.642 109.97 11.318 110.27 10.67H113.546C113.378 11.33 113.072 11.924 112.628 12.452C112.196 12.98 111.65 13.394 110.99 13.694C110.33 13.994 109.592 14.144 108.776 14.144C107.792 14.144 106.916 13.934 106.148 13.514C105.38 13.094 104.78 12.494 104.348 11.714C103.916 10.934 103.7 10.022 103.7 8.978C103.7 7.934 103.91 7.022 104.33 6.242C104.762 5.462 105.362 4.862 106.13 4.442C106.898 4.022 107.78 3.812 108.776 3.812C109.748 3.812 110.612 4.016 111.368 4.424C112.124 4.832 112.712 5.414 113.132 6.17C113.564 6.926 113.78 7.808 113.78 8.816ZM110.63 8.006C110.63 7.478 110.45 7.058 110.09 6.746C109.73 6.434 109.28 6.278 108.74 6.278C108.224 6.278 107.786 6.428 107.426 6.728C107.078 7.028 106.862 7.454 106.778 8.006H110.63ZM131.316 8.96C131.316 7.928 131.508 7.022 131.892 6.242C132.288 5.462 132.822 4.862 133.494 4.442C134.166 4.022 134.916 3.812 135.744 3.812C136.452 3.812 137.07 3.956 137.598 4.244C138.138 4.532 138.552 4.91 138.84 5.378V3.956H141.918V14H138.84V12.578C138.54 13.046 138.12 13.424 137.58 13.712C137.052 14 136.434 14.144 135.726 14.144C134.91 14.144 134.166 13.934 133.494 13.514C132.822 13.082 132.288 12.476 131.892 11.696C131.508 10.904 131.316 9.992 131.316 8.96ZM138.84 8.978C138.84 8.21 138.624 7.604 138.192 7.16C137.772 6.716 137.256 6.494 136.644 6.494C136.032 6.494 135.51 6.716 135.078 7.16C134.658 7.592 134.448 8.192 134.448 8.96C134.448 9.728 134.658 10.34 135.078 10.796C135.51 11.24 136.032 11.462 136.644 11.462C137.256 11.462 137.772 11.24 138.192 10.796C138.624 10.352 138.84 9.746 138.84 8.978ZM150.264 3.848C151.44 3.848 152.376 4.232 153.072 5C153.78 5.756 154.134 6.8 154.134 8.132V14H151.074V8.546C151.074 7.874 150.9 7.352 150.552 6.98C150.204 6.608 149.736 6.422 149.148 6.422C148.56 6.422 148.092 6.608 147.744 6.98C147.396 7.352 147.222 7.874 147.222 8.546V14H144.144V3.956H147.222V5.288C147.534 4.844 147.954 4.496 148.482 4.244C149.01 3.98 149.604 3.848 150.264 3.848ZM155.661 8.96C155.661 7.928 155.853 7.022 156.237 6.242C156.633 5.462 157.167 4.862 157.839 4.442C158.511 4.022 159.261 3.812 160.089 3.812C160.797 3.812 161.415 3.956 161.943 4.244C162.483 4.532 162.897 4.91 163.185 5.378V3.956H166.263V14H163.185V12.578C162.885 13.046 162.465 13.424 161.925 13.712C161.397 14 160.779 14.144 160.071 14.144C159.255 14.144 158.511 13.934 157.839 13.514C157.167 13.082 156.633 12.476 156.237 11.696C155.853 10.904 155.661 9.992 155.661 8.96ZM163.185 8.978C163.185 8.21 162.969 7.604 162.537 7.16C162.117 6.716 161.601 6.494 160.989 6.494C160.377 6.494 159.855 6.716 159.423 7.16C159.003 7.592 158.793 8.192 158.793 8.96C158.793 9.728 159.003 10.34 159.423 10.796C159.855 11.24 160.377 11.462 160.989 11.462C161.601 11.462 162.117 11.24 162.537 10.796C162.969 10.352 163.185 9.746 163.185 8.978ZM172.306 3.812C173.014 3.812 173.632 3.956 174.16 4.244C174.7 4.532 175.114 4.91 175.402 5.378V3.956H178.48V13.982C178.48 14.906 178.294 15.74 177.922 16.484C177.562 17.24 177.004 17.84 176.248 18.284C175.504 18.728 174.574 18.95 173.458 18.95C171.97 18.95 170.764 18.596 169.84 17.888C168.916 17.192 168.388 16.244 168.256 15.044H171.298C171.394 15.428 171.622 15.728 171.982 15.944C172.342 16.172 172.786 16.286 173.314 16.286C173.95 16.286 174.454 16.1 174.826 15.728C175.21 15.368 175.402 14.786 175.402 13.982V12.56C175.102 13.028 174.688 13.412 174.16 13.712C173.632 14 173.014 14.144 172.306 14.144C171.478 14.144 170.728 13.934 170.056 13.514C169.384 13.082 168.85 12.476 168.454 11.696C168.07 10.904 167.878 9.992 167.878 8.96C167.878 7.928 168.07 7.022 168.454 6.242C168.85 5.462 169.384 4.862 170.056 4.442C170.728 4.022 171.478 3.812 172.306 3.812ZM175.402 8.978C175.402 8.21 175.186 7.604 174.754 7.16C174.334 6.716 173.818 6.494 173.206 6.494C172.594 6.494 172.072 6.716 171.64 7.16C171.22 7.592 171.01 8.192 171.01 8.96C171.01 9.728 171.22 10.34 171.64 10.796C172.072 11.24 172.594 11.462 173.206 11.462C173.818 11.462 174.334 11.24 174.754 10.796C175.186 10.352 175.402 9.746 175.402 8.978ZM190.175 8.816C190.175 9.104 190.157 9.404 190.121 9.716H183.155C183.203 10.34 183.401 10.82 183.749 11.156C184.109 11.48 184.547 11.642 185.063 11.642C185.831 11.642 186.365 11.318 186.665 10.67H189.941C189.773 11.33 189.467 11.924 189.023 12.452C188.591 12.98 188.045 13.394 187.385 13.694C186.725 13.994 185.987 14.144 185.171 14.144C184.187 14.144 183.311 13.934 182.543 13.514C181.775 13.094 181.175 12.494 180.743 11.714C180.311 10.934 180.095 10.022 180.095 8.978C180.095 7.934 180.305 7.022 180.725 6.242C181.157 5.462 181.757 4.862 182.525 4.442C183.293 4.022 184.175 3.812 185.171 3.812C186.143 3.812 187.007 4.016 187.763 4.424C188.519 4.832 189.107 5.414 189.527 6.17C189.959 6.926 190.175 7.808 190.175 8.816ZM187.025 8.006C187.025 7.478 186.845 7.058 186.485 6.746C186.125 6.434 185.675 6.278 185.135 6.278C184.619 6.278 184.181 6.428 183.821 6.728C183.473 7.028 183.257 7.454 183.173 8.006H187.025ZM194.877 5.63C195.237 5.078 195.687 4.646 196.227 4.334C196.767 4.01 197.367 3.848 198.027 3.848V7.106H197.181C196.413 7.106 195.837 7.274 195.453 7.61C195.069 7.934 194.877 8.51 194.877 9.338V14H191.799V3.956H194.877V5.63Z" fill="black"/>
</g>
<defs>
<filter id="filter0_bd_104:9" x="0.906189" y="-3.32001" width="201.12" height="30.27" filterUnits="userSpaceOnUse" color-interpolation-filters="sRGB">
<feFlood flood-opacity="0" result="BackgroundImageFix"/>
<feGaussianBlur in="BackgroundImage" stdDeviation="2"/>
<feComposite in2="SourceAlpha" operator="in" result="effect1_backgroundBlur_104:9"/>
<feColorMatrix in="SourceAlpha" type="matrix" values="0 0 0 0 0 0 0 0 0 0 0 0 0 0 0 0 0 0 127 0" result="hardAlpha"/>
<feOffset dy="4"/>
<feGaussianBlur stdDeviation="2"/>
<feComposite in2="hardAlpha" operator="out"/>
<feColorMatrix type="matrix" values="0 0 0 0 0 0 0 0 0 0 0 0 0 0 0 0 0 0 0.25 0"/>
<feBlend mode="normal" in2="effect1_backgroundBlur_104:9" result="effect2_dropShadow_104:9"/>
<feBlend mode="normal" in="SourceGraphic" in2="effect2_dropShadow_104:9" result="shape"/>
</filter>
</defs>
</svg>
